<?xml version="1.0" standalone="no"?>
<!DOCTYPE svg PUBLIC "-//W3C//DTD SVG 20010904//EN"
 "http://www.w3.org/TR/2001/REC-SVG-20010904/DTD/svg10.dtd">
<svg version="1.0" xmlns="http://www.w3.org/2000/svg"
 width="512.000000pt" height="512.000000pt" viewBox="0 0 512.000000 512.000000"
 fill="currentColor" preserveAspectRatio="xMidYMid meet">
<g transform="translate(0.000000,512.000000) scale(0.100000,-0.100000)" stroke="none">
<path d="M2395 5106 c-274 -77 -462 -272 -516 -534 l-13 -61 -455 -3 c-524 -4
-523 -4 -666 -99 -168 -113 -257 -285 -257 -501 0 -119 13 -181 60 -278 45
-93 159 -212 244 -255 l57 -30 3 -1430 3 -1430 27 -80 c67 -194 222 -341 413
-390 89 -23 2441 -23 2530 0 191 49 346 196 413 390 l27 80 3 1430 3 1430 57
30 c85 43 199 162 244 255 47 97 60 159 60 278 0 216 -89 388 -257 501 -143
95 -142 95 -666 99 l-455 3 -13 61 c-49 236 -212 423 -443 510 -75 28 -96 32
-218 35 -94 2 -150 -1 -185 -11z m302 -296 c120 -42 229 -157 257 -272 l6 -28
-400 0 -401 0 6 23 c20 65 60 133 107 180 115 115 272 150 425 97z m1480 -618
c60 -32 112 -87 142 -151 21 -46 25 -70 25 -136 -1 -130 -56 -223 -169 -283
l-50 -27 -1565 0 -1565 0 -50 27 c-113 60 -168 153 -169 283 0 145 74 255 201
301 32 11 302 13 1598 11 l1560 -2 42 -23z m-199 -2284 c-3 -1392 -3 -1393
-24 -1439 -44 -94 -123 -157 -222 -178 -74 -15 -2270 -15 -2344 0 -99 21 -178
84 -222 178 -21 46 -21 47 -24 1439 l-2 1392 1420 0 1420 0 -2 -1392z"/>
<path d="M1775 2469 c-17 -4 -41 -18 -54 -30 -52 -49 -51 -28 -51 -891 0 -897
-4 -846 70 -896 47 -32 127 -27 166 9 57 53 54 11 54 891 0 754 -1 816 -18
848 -28 56 -105 88 -167 69z"/>
<path d="M2522 2470 c-18 -4 -42 -16 -53 -26 -51 -46 -49 -16 -49 -894 0 -906
-3 -860 63 -900 42 -26 112 -26 154 0 66 40 63 -6 63 902 0 798 -1 824 -20
855 -33 55 -91 78 -158 63z"/>
<path d="M3257 2466 c-20 -8 -45 -20 -54 -27 -43 -36 -43 -38 -43 -889 0 -878
-3 -836 54 -889 36 -34 118 -40 163 -12 73 46 68 -17 71 889 2 797 2 816 -18
856 -32 67 -104 97 -173 72z"/>
</g>
</svg>
