<?xml version="1.0" standalone="no"?>
<!DOCTYPE svg PUBLIC "-//W3C//DTD SVG 20010904//EN"
 "http://www.w3.org/TR/2001/REC-SVG-20010904/DTD/svg10.dtd">
<svg version="1.0" xmlns="http://www.w3.org/2000/svg"
 width="425.000000pt" height="425.000000pt" viewBox="0 0 425.000000 425.000000"
 preserveAspectRatio="xMidYMid meet">
<metadata>
Created by potrace 1.11, written by Peter Selinger 2001-2013
</metadata>
<g transform="translate(0.000000,425.000000) scale(0.100000,-0.100000)"
fill="#000000" stroke="none">
<path d="M1675 3400 c-181 -16 -388 -33 -460 -40 -71 -6 -209 -18 -305 -26
-314 -25 -330 -27 -330 -33 0 -4 129 -18 288 -32 l287 -26 175 18 c492 51 576
59 602 59 l28 0 0 -80 c0 -71 2 -80 18 -80 14 0 18 6 16 28 -2 15 -5 58 -7 95
-4 63 -3 69 19 84 22 14 26 14 49 -1 19 -12 25 -26 26 -54 1 -32 2 -34 8 -12
6 21 12 25 42 22 19 -1 129 -9 244 -17 116 -8 289 -22 385 -29 343 -28 338
-28 480 -8 74 11 180 26 235 33 126 16 153 28 60 29 -77 0 -849 50 -1470 94
-33 3 -208 -8 -390 -24z"/>
<path d="M3670 3299 c-129 -21 -351 -54 -705 -104 -132 -19 -267 -39 -300 -45
-33 -5 -128 -19 -212 -31 l-151 -21 -199 21 c-446 48 -673 72 -763 81 -257 26
-602 62 -755 80 -94 10 -179 18 -190 16 -17 -3 -20 -10 -18 -42 2 -21 7 -106
13 -189 12 -187 42 -655 75 -1185 14 -223 27 -436 30 -475 2 -38 7 -110 10
-160 12 -193 16 -242 21 -297 3 -32 7 -58 8 -58 1 0 24 7 50 16 64 22 69 12 7
-15 -58 -25 -58 -38 0 -66 51 -24 65 -26 97 -14 21 8 37 4 87 -22 l62 -32 62
20 c33 11 61 19 61 17 0 -2 -19 -14 -43 -28 -23 -14 -37 -26 -30 -26 7 0 21
-9 31 -20 10 -11 42 -26 70 -32 29 -7 52 -18 52 -25 0 -12 13 -17 33 -14 4 0
7 -4 7 -9 0 -6 9 -10 21 -10 12 0 17 4 13 11 -3 6 5 3 20 -6 32 -21 34 -30 4
-15 -22 11 -22 11 -3 -5 11 -8 24 -14 30 -11 90 36 115 44 115 37 0 -5 -18
-18 -41 -27 -35 -16 -38 -20 -24 -31 10 -7 14 -17 9 -24 -4 -8 -3 -10 5 -5 6
4 25 1 42 -8 16 -8 36 -13 43 -10 8 3 16 -4 20 -18 5 -15 9 -18 13 -10 4 10 9
9 24 -4 18 -16 17 -34 -2 -34 -6 0 -7 5 -3 12 4 7 3 8 -5 4 -20 -13 -1 -26 27
-20 21 4 24 3 12 -5 -9 -6 -10 -11 -3 -11 6 0 18 7 26 15 13 12 15 12 20 -5 3
-13 1 -18 -6 -14 -7 3 -1 -3 13 -14 15 -13 29 -17 35 -12 10 8 154 70 163 70
13 0 -16 -24 -49 -41 -31 -15 -38 -23 -30 -33 6 -7 8 -16 4 -20 -4 -4 1 -4 10
0 12 4 23 0 31 -11 9 -12 26 -18 54 -18 26 0 42 -4 42 -12 0 -6 27 -20 60 -30
32 -10 57 -21 55 -25 -7 -11 22 -20 41 -13 13 5 15 2 9 -18 -7 -22 -7 -23 10
-9 17 14 18 13 12 -2 -5 -15 -3 -15 31 1 20 9 52 25 70 34 57 31 55 14 -3 -23
-54 -34 -74 -64 -50 -74 7 -2 12 4 11 16 0 12 6 23 14 25 13 4 13 3 0 -7 -12
-9 -11 -10 9 -8 14 2 26 -3 29 -11 3 -10 -2 -11 -19 -6 -18 5 -21 4 -9 -4 14
-10 191 -7 270 5 19 3 50 5 68 6 17 1 32 5 32 10 0 4 3 7 8 7 4 -1 10 0 15 1
12 4 26 7 38 9 5 0 7 6 3 12 -5 9 1 10 20 5 15 -4 26 -2 26 3 0 6 8 8 18 4 14
-5 13 -3 -3 11 -11 9 -15 16 -10 15 6 -1 19 -1 30 0 17 1 16 4 -10 22 l-30 21
30 -5 c17 -2 38 -7 47 -12 14 -5 16 -2 13 16 -3 16 -2 20 7 11 8 -8 15 -7 26
4 8 8 21 13 29 10 9 -4 17 2 20 15 4 14 11 19 25 16 13 -4 22 2 30 18 6 14 16
21 25 18 9 -4 16 2 20 16 5 21 23 30 23 11 0 -19 18 -10 23 11 4 15 11 20 23
15 11 -4 15 -2 11 8 -4 11 -1 13 11 10 14 -5 13 -3 -2 10 -11 9 -24 16 -30 16
-7 0 -7 3 0 10 7 7 21 6 44 -1 30 -11 35 -10 52 11 10 12 18 19 18 16 0 -4 12
5 26 19 18 18 29 23 34 16 11 -19 60 5 60 29 0 15 9 21 41 26 23 4 36 10 29
14 -8 5 -6 9 6 14 16 6 16 8 -2 20 -27 20 -13 28 26 14 26 -9 35 -9 38 0 2 7
10 12 18 12 8 0 14 5 14 10 0 6 6 9 13 8 6 -2 11 3 9 10 -1 8 2 11 8 7 5 -3
15 -1 22 5 24 19 103 70 111 70 5 0 5 -5 1 -12 -4 -7 -3 -8 5 -4 6 4 9 12 6
17 -4 5 0 9 7 10 7 0 1 5 -14 11 -43 15 -33 25 25 24 58 -2 88 10 79 32 -4 11
0 13 18 7 15 -5 20 -4 16 4 -4 6 0 11 9 11 9 0 13 5 10 11 -4 6 2 13 14 16 12
3 21 9 21 14 0 5 11 7 25 5 14 -3 23 -1 20 5 -4 5 0 9 7 10 7 0 1 5 -15 11
-30 11 -28 29 3 21 11 -3 31 -2 44 1 32 8 42 46 50 191 18 330 27 483 41 695
8 129 21 348 30 485 8 138 24 393 35 568 24 377 23 357 8 356 -7 -1 -65 -10
-128 -20z m-2805 -179 c55 -6 152 -17 215 -25 63 -8 194 -24 290 -35 96 -12
243 -30 325 -40 83 -10 176 -21 208 -25 l57 -6 0 -78 c0 -43 2 -80 5 -83 3 -3
17 -3 31 0 26 5 26 5 19 79 l-7 74 39 -5 c21 -3 60 -8 87 -11 l48 -7 -6 -51
c-13 -99 -11 -97 -75 -96 -31 0 -123 -13 -206 -29 -82 -16 -214 -40 -292 -53
-78 -13 -140 -26 -137 -30 2 -4 68 -17 147 -29 l143 -22 102 19 102 20 0 -39
c0 -29 4 -38 17 -38 9 0 45 -5 80 -11 52 -9 63 -14 63 -31 0 -16 -5 -19 -27
-14 -16 3 -109 19 -208 36 -315 54 -510 91 -515 98 -3 4 -63 46 -134 92 -72
47 -150 99 -175 117 -26 17 -112 76 -193 130 -81 54 -148 101 -148 106 0 4 10
5 23 2 12 -2 67 -9 122 -15z m2560 11 c-6 -5 -135 -96 -288 -204 -153 -108
-278 -199 -278 -204 0 -4 10 -11 23 -14 18 -4 13 -8 -27 -17 -27 -6 -143 -33
-257 -60 l-208 -49 0 42 0 42 48 -9 c39 -7 72 -3 189 23 79 18 142 33 140 35
-1 1 -72 12 -157 23 -85 12 -170 24 -187 27 l-33 6 0 94 c0 67 4 96 13 99 6 2
93 18 192 35 243 42 568 98 690 120 118 20 153 23 140 11z m196 -446 c-11
-198 -23 -394 -26 -435 -3 -41 -12 -196 -20 -345 -8 -148 -17 -295 -20 -325
-2 -30 -7 -111 -11 -180 -3 -69 -8 -127 -10 -129 -1 -2 -58 32 -124 75 -67 44
-181 117 -253 164 -174 112 -225 150 -229 168 -4 18 9 524 20 776 l7 179 150
105 c83 58 236 165 340 238 l190 134 3 -32 c2 -18 -6 -194 -17 -393z m-2691
162 c190 -126 346 -231 348 -232 3 -3 31 -810 32 -915 l0 -66 -227 -159 c-124
-88 -267 -188 -317 -223 l-91 -63 -7 58 c-7 54 -16 210 -68 1083 -11 184 -24
412 -30 507 -13 228 -13 256 3 247 6 -4 167 -111 357 -237z m1856 -604 c-3
-175 -9 -368 -13 -430 l-6 -111 43 -12 c23 -6 39 -15 34 -20 -5 -4 -43 -22
-84 -40 -168 -71 -336 -142 -357 -151 l-23 -9 0 114 0 113 114 -30 114 -30 71
28 c39 16 71 31 71 35 0 4 -42 16 -92 28 -51 12 -133 33 -183 46 l-90 24 0
328 0 328 45 14 c86 25 335 91 349 91 12 1 13 -47 7 -316z m-1061 256 l235
-43 1 -131 c0 -71 2 -166 3 -210 2 -44 3 -112 4 -152 l2 -71 51 -7 c27 -4 48
-9 46 -11 -6 -6 -566 -194 -578 -194 -6 0 -7 5 -3 11 3 6 1 14 -5 18 -13 9
-17 80 -27 520 l-7 324 22 -6 c12 -3 127 -25 256 -48z m245 -811 c0 -24 3 -52
6 -63 4 -17 -5 -24 -56 -44 -34 -13 -59 -25 -57 -28 3 -2 56 -19 118 -37 107
-30 114 -34 117 -59 2 -19 -1 -27 -12 -27 -38 0 -657 200 -651 210 12 20 67
20 132 0 l69 -21 149 55 c83 30 158 55 168 55 14 1 17 -7 17 -41z m1120 -278
c124 -83 222 -150 217 -150 -21 0 -679 188 -687 197 -3 3 0 8 5 10 6 2 55 24
110 48 55 24 107 44 115 44 8 0 116 -67 240 -149z m-1612 94 c31 -9 61 -20 67
-25 5 -5 17 -9 27 -9 36 0 16 -16 -44 -37 -35 -11 -94 -33 -133 -47 -38 -14
-71 -26 -72 -26 -1 0 0 7 4 16 3 8 12 13 20 10 8 -3 11 -1 8 5 -4 6 4 8 22 4
25 -5 25 -4 6 4 -16 7 -33 6 -59 -5 -30 -12 -34 -17 -23 -30 10 -12 9 -13 -5
-8 -9 3 -16 10 -16 14 0 5 -9 6 -20 3 -11 -3 -20 -9 -20 -14 0 -5 -11 -9 -25
-9 -13 0 -43 -7 -65 -16 -23 -9 -43 -15 -45 -13 -8 8 290 209 303 204 7 -3 38
-12 70 -21z m691 -378 l-2 -241 -12 137 c-7 75 -16 192 -20 260 l-7 123 21
-19 c20 -18 21 -27 20 -260z m-354 254 c0 -1 13 -4 30 -6 67 -7 123 -26 151
-51 27 -24 27 -25 6 -20 -19 4 -23 2 -20 -16 2 -13 13 -24 28 -27 l25 -6 -22
-12 c-20 -11 -22 -20 -21 -73 2 -59 3 -61 40 -80 65 -33 68 -31 68 75 0 96
-12 127 -42 111 -7 -4 -4 1 6 9 37 30 53 21 59 -36 11 -96 17 -336 8 -298 -5
19 -8 37 -5 41 2 4 -3 12 -11 19 -16 14 -49 4 -113 -33 -25 -15 -30 -22 -20
-28 10 -7 10 -9 0 -9 -10 0 -10 -5 -1 -21 10 -19 9 -20 -13 -14 -17 5 -15 1
10 -14 30 -19 47 -40 20 -25 -7 4 -6 -1 3 -10 17 -18 124 -62 115 -47 -4 5 -1
11 5 13 7 2 7 12 -1 32 -10 27 0 56 19 56 10 0 31 -276 31 -402 0 -61 -4 -108
-9 -108 -11 0 -428 179 -866 370 -154 67 -322 141 -374 164 -88 38 -92 41 -63
47 41 8 84 0 75 -15 -3 -6 -2 -7 3 -3 5 5 9 16 9 24 0 19 40 43 132 78 37 14
76 30 85 36 10 5 30 9 45 9 27 1 27 1 8 16 -11 8 -26 12 -35 9 -12 -5 -13 -4
-2 6 9 10 19 11 45 1 38 -14 82 -2 147 37 19 11 42 24 50 27 43 18 100 46 100
49 0 5 -76 -18 -128 -40 -24 -10 -45 -15 -48 -13 -2 3 25 17 61 33 36 15 65
32 65 37 0 5 6 8 13 5 17 -6 143 39 210 75 18 9 36 4 25 -7 -3 -3 -34 -16 -69
-29 -105 -39 -125 -48 -112 -53 6 -2 28 3 50 12 53 23 163 62 196 69 34 8 35
26 1 26 -14 0 -23 4 -20 8 4 7 51 8 51 2z m-526 -34 c-2 -2 -17 -6 -34 -10
-22 -5 -26 -4 -15 4 14 9 59 15 49 6z m1159 -27 c2 -5 10 -9 18 -9 9 0 37 -7
64 -16 49 -16 58 -15 123 11 9 4 17 3 17 -3 0 -5 -12 -13 -27 -17 -16 -4 -23
-9 -18 -11 6 -1 51 -14 100 -29 50 -14 118 -35 152 -46 47 -15 68 -17 82 -9
11 5 28 9 38 9 17 -1 17 -2 1 -6 -10 -2 -18 -8 -18 -13 0 -8 91 -50 109 -50
16 0 106 -32 111 -39 3 -4 20 -15 39 -24 l34 -17 112 60 c102 55 118 60 174
60 33 0 61 -3 61 -7 -1 -7 -92 -64 -580 -360 -91 -55 -257 -156 -370 -224
-113 -69 -227 -137 -253 -153 l-48 -27 3 116 c2 64 6 119 10 122 5 2 3 13 -3
24 -12 24 -3 62 10 40 7 -10 10 -9 14 3 4 10 1 16 -7 16 -17 0 -26 63 -21 165
4 109 4 105 16 105 5 0 8 -4 4 -9 -7 -13 21 -28 60 -32 26 -4 31 0 41 30 8 24
8 38 1 46 -14 15 -79 6 -94 -13 -7 -8 -15 -14 -17 -11 -5 5 -8 96 -7 237 l1
104 33 -7 c17 -4 34 -11 35 -16z m-1148 -133 c0 -2 -7 -7 -16 -10 -8 -3 -12
-2 -9 4 6 10 25 14 25 6z m-140 -60 c0 -6 -182 -77 -187 -73 -2 3 36 21 84 40
87 36 103 41 103 33z m-317 -93 c52 -19 59 -30 22 -39 -16 -4 -45 4 -90 25
-36 17 -65 33 -65 35 0 9 87 -5 133 -21z m1644 -28 c0 -8 -4 -12 -9 -9 -5 3
-6 -5 -3 -19 6 -22 4 -23 -26 -19 -25 4 -28 6 -15 14 9 5 16 18 16 28 0 13 7
20 18 20 10 0 19 -7 19 -15z m-1560 -11 c-3 -3 -12 -4 -19 -1 -8 3 -5 6 6 6
11 1 17 -2 13 -5z m2518 -93 c3 -5 1 -12 -5 -16 -5 -3 -10 1 -10 9 0 18 6 21
15 7z m-2170 -331 c-3 -5 -12 -10 -18 -10 -7 0 -6 4 3 10 19 12 23 12 15 0z"/>
<path d="M1425 1429 c-22 -10 -34 -19 -27 -19 15 0 72 28 72 35 0 6 3 7 -45
-16z"/>
<path d="M2006 1067 c3 -8 0 -18 -6 -22 -8 -5 -8 -11 1 -21 9 -12 6 -16 -20
-25 -18 -6 -30 -14 -27 -17 3 -3 36 10 72 28 65 32 66 33 43 45 -45 23 -69 28
-63 12z"/>
<path d="M2010 800 c0 -5 8 -10 18 -11 10 0 12 -3 5 -6 -22 -8 -14 -23 12 -23
14 0 25 5 25 10 0 6 4 10 9 10 5 0 7 -9 4 -20 -5 -21 11 -28 22 -10 3 6 1 10
-5 10 -6 0 -8 4 -5 10 3 5 -11 16 -31 25 -43 18 -54 19 -54 5z"/>
<path d="M2008 743 c7 -3 16 -2 19 1 4 3 -2 6 -13 5 -11 0 -14 -3 -6 -6z"/>
<path d="M2040 740 c0 -5 4 -10 9 -10 6 0 13 5 16 10 3 6 -1 10 -9 10 -9 0
-16 -4 -16 -10z"/>
<path d="M1987 699 c7 -7 15 -10 18 -7 3 3 -2 9 -12 12 -14 6 -15 5 -6 -5z"/>
<path d="M2025 550 c3 -5 14 -10 23 -10 15 0 15 2 2 10 -20 13 -33 13 -25 0z"/>
<path d="M2078 528 c5 -5 16 -8 23 -6 8 3 3 7 -10 11 -17 4 -21 3 -13 -5z"/>
<path d="M2430 710 c-13 -8 -12 -10 3 -10 9 0 17 5 17 10 0 12 -1 12 -20 0z"/>
<path d="M2400 651 c0 -5 9 -11 21 -14 16 -4 18 -3 8 9 -13 16 -29 19 -29 5z"/>
<path d="M571 790 c-9 -5 -8 -9 5 -14 9 -4 21 -3 26 2 12 12 -15 23 -31 12z"/>
<path d="M670 790 c0 -5 7 -7 15 -4 8 4 15 8 15 10 0 2 -7 4 -15 4 -8 0 -15
-4 -15 -10z"/>
<path d="M607 769 c-10 -6 -26 -8 -35 -4 -11 4 -13 3 -7 -3 15 -15 59 -26 51
-14 -4 6 2 15 11 21 10 6 14 10 8 10 -5 0 -18 -4 -28 -10z"/>
<path d="M630 710 c8 -5 20 -10 25 -10 6 0 3 5 -5 10 -8 5 -19 10 -25 10 -5 0
-3 -5 5 -10z"/>
<path d="M2920 550 c0 -5 5 -10 10 -10 6 0 10 5 10 10 0 6 -4 10 -10 10 -5 0
-10 -4 -10 -10z"/>
<path d="M1540 410 c0 -5 5 -10 11 -10 5 0 7 5 4 10 -3 6 -8 10 -11 10 -2 0
-4 -4 -4 -10z"/>
<path d="M1735 310 c-3 -5 -2 -10 4 -10 5 0 13 5 16 10 3 6 2 10 -4 10 -5 0
-13 -4 -16 -10z"/>
<path d="M1780 300 c0 -5 5 -10 10 -10 6 0 10 5 10 10 0 6 -4 10 -10 10 -5 0
-10 -4 -10 -10z"/>
</g>
</svg>
