<?xml version="1.0" encoding="utf-8"?>
<!-- Svg Vector Icons : http://www.onlinewebfonts.com/icon -->
<!DOCTYPE svg PUBLIC "-//W3C//DTD SVG 1.1//EN" "http://www.w3.org/Graphics/SVG/1.1/DTD/svg11.dtd">
<svg version="1.1" xmlns="http://www.w3.org/2000/svg" xmlns:xlink="http://www.w3.org/1999/xlink" x="0px" y="0px" viewBox="0 0 1000 1000" fill="currentColor" enable-background="new 0 0 1000 1000" xml:space="preserve">
<metadata> Svg Vector Icons : http://www.onlinewebfonts.com/icon </metadata>
<g><g><g><polygon points="477.7,10 477.7,54.6 433.2,54.6 433.2,99.1 566.8,99.1 566.8,54.6 522.3,54.6 524.6,10 "/><path d="M143.5,856.6h317.4L367.2,990h45l93.7-133.4h17.8L617.3,990h45l-93.6-133.4h287.9c0,0,22.3,4,22.3-20.3c0-24.3-22.3-24.3-22.3-24.3h-713c0,0-22.3,0-22.3,24.2C121.2,860.6,143.5,856.6,143.5,856.6z"/><path d="M121.2,232.8v445.6c0,89.1,89.1,89.1,89.1,89.1h579.3c0,0,89.1,0,89.1-89.1V232.8c0-89.1-89.1-89.1-89.1-89.1H210.4C210.4,143.7,121.2,143.7,121.2,232.8z M834.2,232.8v445.6c0,44.6-44.6,44.6-44.6,44.6H210.4c0,0-44.6,0-44.6-44.6V232.8c0-44.6,44.6-44.6,44.6-44.6h579.3C789.6,188.2,834.2,188.2,834.2,232.8z"/></g></g><g></g><g></g><g></g><g></g><g></g><g></g><g></g><g></g><g></g><g></g><g></g><g></g><g></g><g></g><g></g></g>
</svg>