<?xml version="1.0" standalone="no"?>
<!DOCTYPE svg PUBLIC "-//W3C//DTD SVG 20010904//EN"
 "http://www.w3.org/TR/2001/REC-SVG-20010904/DTD/svg10.dtd">
<svg version="1.0" xmlns="http://www.w3.org/2000/svg"
 width="512.000000pt" height="512.000000pt" viewBox="0 0 512.000000 512.000000"
 fill="currentColor" preserveAspectRatio="xMidYMid meet">
<g transform="translate(0.000000,512.000000) scale(0.100000,-0.100000)" stroke="none">
<path d="M2470 4379 c-56 -25 -86 -53 -113 -104 -20 -36 -22 -58 -25 -235 l-3
-196 -87 -22 c-201 -51 -360 -169 -435 -322 -71 -144 -70 -137 -77 -730 -5
-485 -7 -540 -24 -585 -42 -115 -95 -180 -229 -284 -127 -98 -187 -161 -226
-240 -41 -80 -71 -207 -71 -298 l0 -73 660 0 660 0 0 -70 0 -70 -39 -20 c-132
-67 -159 -248 -53 -348 130 -122 340 -50 368 127 14 84 -37 181 -117 221 l-39
20 0 70 0 70 661 0 662 0 -6 102 c-9 160 -58 287 -145 380 -26 28 -93 86 -149
129 -134 104 -187 169 -229 284 -17 45 -19 100 -24 585 -7 593 -6 586 -77 730
-75 153 -234 271 -435 322 l-87 22 -3 196 c-3 177 -5 199 -25 235 -11 22 -32
50 -45 62 -36 34 -108 63 -158 63 -25 0 -65 -10 -90 -21z m149 -113 c45 -24
51 -52 51 -236 l0 -170 -110 0 -110 0 0 173 c1 184 6 208 51 233 32 18 83 17
118 0z"/>
</g>
</svg>
