<?xml version="1.0" standalone="no"?>
<!DOCTYPE svg PUBLIC "-//W3C//DTD SVG 20010904//EN"
 "http://www.w3.org/TR/2001/REC-SVG-20010904/DTD/svg10.dtd">
<svg version="1.0" xmlns="http://www.w3.org/2000/svg"
 width="512.000000pt" height="512.000000pt" viewBox="0 0 512.000000 512.000000"
 fill="currentColor" preserveAspectRatio="xMidYMid meet">
<g transform="translate(0.000000,512.000000) scale(0.100000,-0.100000)" stroke="none">
<path d="M2104 4690 c-67 -21 -70 -30 -116 -352 l-42 -296 -90 -43 c-49 -24
-130 -71 -180 -105 l-91 -61 -267 109 c-147 59 -281 108 -297 108 -43 0 -73
-16 -98 -53 -64 -97 -434 -752 -440 -777 -11 -60 10 -82 250 -270 l230 -179 1
-212 1 -211 -215 -168 c-259 -203 -265 -208 -265 -263 0 -36 30 -93 220 -422
121 -209 229 -390 242 -402 41 -42 83 -33 373 83 l266 106 79 -53 c43 -30 124
-77 179 -106 l100 -51 42 -287 c23 -158 48 -299 55 -313 28 -50 44 -52 519
-52 491 0 499 1 524 62 8 18 30 150 50 293 20 143 38 269 41 280 3 14 31 33
86 60 46 22 125 68 178 103 52 34 97 62 100 62 4 0 122 -47 265 -105 283 -115
324 -124 370 -82 38 34 457 766 463 808 3 21 -1 47 -9 63 -8 15 -117 107 -242
205 l-228 178 -2 210 -1 210 233 183 c148 115 237 192 243 209 6 14 8 41 5 60
-3 18 -105 207 -228 418 -232 400 -241 413 -305 413 -16 0 -150 -49 -298 -108
l-270 -108 -75 52 c-41 29 -121 76 -178 104 -74 37 -103 58 -107 73 -2 12 -21
139 -41 282 -20 143 -42 274 -50 290 -28 61 -17 60 -504 62 -245 1 -459 -2
-476 -7z m661 -1420 c225 -71 399 -229 484 -441 81 -202 64 -439 -44 -636 -58
-104 -197 -237 -305 -291 -128 -64 -228 -85 -369 -80 -192 8 -332 67 -472 196
-225 208 -299 532 -186 812 41 100 88 170 167 250 106 106 226 172 374 206 88
20 261 12 351 -16z"/>
</g>
</svg>
